<svg version="1.1"
	 xmlns="http://www.w3.org/2000/svg" xmlns:xlink="http://www.w3.org/1999/xlink" xmlns:a="http://ns.adobe.com/AdobeSVGViewerExtensions/3.0/"
	 x="0px" y="0px" viewBox="0 0 194.1 70.6" style="enable-background:new 0 0 194.1 70.6;"
	 xml:space="preserve">
<g>
	<path class="logo-primary-color" d="M181.1,29c-1.5,0-2.8-1.3-2.8-2.8V14.7c0-1.5,1.3-2.8,2.8-2.8h5c1.5,0,2.8,1.3,2.8,2.8v11.5
		c0,1.5-1.3,2.8-2.8,2.8H181.1 M187.8,33.5c3.6,0,6.4-2.7,6.4-6.3V13.6c0-3.6-2.7-6.3-6.4-6.3h-8.3c-3.6,0-6.4,2.7-6.4,6.3v13.6
		c0,3.6,2.7,6.3,6.4,6.3H187.8z M148.5,33.5V22.3h9.3v11.2h5.2V7.3h-5.2v10.4h-9.3V7.3h-5.2v26.2H148.5z M135.6,33.5l-7.9-13.4
		l7.5-12.8h-5.8l-4.6,8l-4.6-8h-5.8l7.5,12.8l-7.9,13.4h5.8l5-8.6l5,8.6H135.6z M107.5,11.9l0.6-4.6H91.9v26.2h16.1V29H97.1v-6.7
		h8.7v-4.6h-8.7v-5.8H107.5z M184.7,56.8h5.8v-9.3h-5.8c-1.5,0-2.8,1.3-2.8,2.8V54C181.9,55.6,183.1,56.8,184.7,56.8z M194.1,70.6
		h-3.6V60.1h-4l-6,10.5h-4.1l6.3-10.6c-2.7-0.6-4.4-2.8-4.4-5.8v-3.8c0-3.6,2.4-6,6-6h9.9V70.6z M151.6,67.3l-0.5,3.2h2.5
		c3.3,0,4.6-1.7,5.2-5.1l2.8-17.9h7v23h3.6V44.3h-13.7l-3.4,20.8c-0.2,1.4-0.6,2.2-2,2.2H151.6z M142.1,47.4c1.5,0,2.8,1.3,2.8,2.8
		v2.5c0,1.5-1.2,2.8-2.7,2.8h-5.8v-8.1H142.1z M143.2,58.6c1.5,0,2.8,1.3,2.8,2.8v3.3c0,1.5-1.3,2.8-2.8,2.8h-6.8v-8.9H143.2z
		 M132.8,70.6h10.9c3.6,0,6-2.4,6-6v-2c0-4.1-1.7-5.7-3.6-6.1c1.1-0.5,2.4-1.9,2.4-5.4v-0.8c0-3.6-2.4-6-6-6h-9.7V70.6z M114.1,67.3
		c-1.5,0-2.8-1.3-2.8-2.8V50.4c0-1.5,1.3-2.8,2.8-2.8h6.6c1.5,0,2.8,1.3,2.8,2.8v14.2c0,1.5-1.3,2.8-2.8,2.8H114.1z M121.1,70.6
		c3.6,0,6-2.4,6-6V50.3c0-3.6-2.4-6-6-6h-7.5c-3.6,0-6,2.4-6,6v14.3c0,3.6,2.4,6,6,6H121.1z M96.8,57.6H91v-10h5.8
		c1.5,0,2.8,1.3,2.8,2.8v4.4C99.6,56.3,98.3,57.6,96.8,57.6z M87.3,70.6H91v-9.7h6.3c3.6,0,6-2.4,6-6v-4.6c0-3.6-2.4-6-6-6h-9.9
		V70.6z M69.2,70.6V58.4h4l6.2,12.1h4l-7.1-13.8l6.4-12.4h-4l-5.5,10.9h-3.9V44.3h-3.6v26.2H69.2z M83.3,11.9l0.6-4.6H64.4v4.6h7.2
		v21.6h5.2V11.9H83.3z"/>
	<rect y="57.4" class="logo-secondary-color" width="52.4" height="13.1"/>
	<path class="logo-primary-color" d="M52.4,33.5l-13.1-5.3l-13.1,5.3v10.8h26.2V33.5 M39.3,14.1l13.1,5.3V5.3L39.3,0L26.2,5.3V0H13.1v10.6L0,15.8
		V30L39.3,14.1z"/>
</g>
</svg>
